<mxfile host="app.diagrams.net" modified="2023-10-24T22:33:15.082Z" agent="Mozilla/5.0 (Macintosh; Intel Mac OS X 10_15_7) AppleWebKit/605.1.15 (KHTML, like Gecko) Version/16.3 Safari/605.1.15" etag="RBjkgIKFi4UaUYylnZgE" version="22.0.6" type="github">
  <diagram name="Page-1" id="ROXzPsM9wCNMAVzjWEqk">
    <mxGraphModel dx="1163" dy="731" grid="1" gridSize="10" guides="1" tooltips="1" connect="1" arrows="1" fold="1" page="1" pageScale="1" pageWidth="850" pageHeight="1100" math="0" shadow="0">
      <root>
        <mxCell id="0" />
        <mxCell id="1" parent="0" />
        <mxCell id="JaUzYhM19OWxOe5XVF9s-9" style="edgeStyle=orthogonalEdgeStyle;rounded=0;orthogonalLoop=1;jettySize=auto;html=1;exitX=0.5;exitY=1;exitDx=0;exitDy=0;entryX=0.5;entryY=0;entryDx=0;entryDy=0;" edge="1" parent="1" source="JaUzYhM19OWxOe5XVF9s-1" target="JaUzYhM19OWxOe5XVF9s-3">
          <mxGeometry relative="1" as="geometry" />
        </mxCell>
        <mxCell id="JaUzYhM19OWxOe5XVF9s-10" style="edgeStyle=orthogonalEdgeStyle;rounded=0;orthogonalLoop=1;jettySize=auto;html=1;exitX=0.5;exitY=1;exitDx=0;exitDy=0;" edge="1" parent="1" source="JaUzYhM19OWxOe5XVF9s-1" target="JaUzYhM19OWxOe5XVF9s-4">
          <mxGeometry relative="1" as="geometry" />
        </mxCell>
        <mxCell id="JaUzYhM19OWxOe5XVF9s-1" value="SNARGs for Monotone Policy Batch-NP" style="rounded=0;whiteSpace=wrap;html=1;" vertex="1" parent="1">
          <mxGeometry x="190" y="20" width="160" height="40" as="geometry" />
        </mxCell>
        <mxCell id="JaUzYhM19OWxOe5XVF9s-11" style="edgeStyle=orthogonalEdgeStyle;rounded=0;orthogonalLoop=1;jettySize=auto;html=1;exitX=0.5;exitY=1;exitDx=0;exitDy=0;entryX=0.5;entryY=0;entryDx=0;entryDy=0;" edge="1" parent="1" source="JaUzYhM19OWxOe5XVF9s-3" target="JaUzYhM19OWxOe5XVF9s-5">
          <mxGeometry relative="1" as="geometry" />
        </mxCell>
        <mxCell id="JaUzYhM19OWxOe5XVF9s-12" style="edgeStyle=orthogonalEdgeStyle;rounded=0;orthogonalLoop=1;jettySize=auto;html=1;exitX=0.5;exitY=1;exitDx=0;exitDy=0;entryX=0.5;entryY=0;entryDx=0;entryDy=0;" edge="1" parent="1" source="JaUzYhM19OWxOe5XVF9s-3" target="JaUzYhM19OWxOe5XVF9s-6">
          <mxGeometry relative="1" as="geometry">
            <Array as="points">
              <mxPoint x="190" y="180" />
              <mxPoint x="150" y="180" />
            </Array>
          </mxGeometry>
        </mxCell>
        <mxCell id="JaUzYhM19OWxOe5XVF9s-3" value="Predicate Extractable Hash Functions" style="rounded=0;whiteSpace=wrap;html=1;" vertex="1" parent="1">
          <mxGeometry x="130" y="100" width="120" height="40" as="geometry" />
        </mxCell>
        <mxCell id="JaUzYhM19OWxOe5XVF9s-4" value="seBARGs" style="rounded=0;whiteSpace=wrap;html=1;" vertex="1" parent="1">
          <mxGeometry x="290" y="100" width="120" height="40" as="geometry" />
        </mxCell>
        <mxCell id="JaUzYhM19OWxOe5XVF9s-5" value="RAM SNARGs" style="rounded=0;whiteSpace=wrap;html=1;" vertex="1" parent="1">
          <mxGeometry x="20" y="200" width="90" height="20" as="geometry" />
        </mxCell>
        <mxCell id="JaUzYhM19OWxOe5XVF9s-6" value="FHE" style="rounded=0;whiteSpace=wrap;html=1;" vertex="1" parent="1">
          <mxGeometry x="130" y="210" width="40" height="20" as="geometry" />
        </mxCell>
        <mxCell id="JaUzYhM19OWxOe5XVF9s-8" value="Hash Functions with Local Openings" style="rounded=0;whiteSpace=wrap;html=1;" vertex="1" parent="1">
          <mxGeometry x="195" y="195" width="100" height="50" as="geometry" />
        </mxCell>
        <mxCell id="JaUzYhM19OWxOe5XVF9s-15" value="LWE" style="ellipse;whiteSpace=wrap;html=1;" vertex="1" parent="1">
          <mxGeometry x="40" y="245" width="50" height="30" as="geometry" />
        </mxCell>
        <mxCell id="JaUzYhM19OWxOe5XVF9s-16" value="LWE" style="ellipse;whiteSpace=wrap;html=1;" vertex="1" parent="1">
          <mxGeometry x="325" y="160" width="50" height="30" as="geometry" />
        </mxCell>
        <mxCell id="JaUzYhM19OWxOe5XVF9s-17" value="" style="endArrow=classic;html=1;rounded=0;exitX=0.5;exitY=1;exitDx=0;exitDy=0;entryX=0.5;entryY=0;entryDx=0;entryDy=0;" edge="1" parent="1" source="JaUzYhM19OWxOe5XVF9s-4" target="JaUzYhM19OWxOe5XVF9s-16">
          <mxGeometry width="50" height="50" relative="1" as="geometry">
            <mxPoint x="270" y="340" as="sourcePoint" />
            <mxPoint x="320" y="290" as="targetPoint" />
          </mxGeometry>
        </mxCell>
        <mxCell id="JaUzYhM19OWxOe5XVF9s-18" value="existence assumed" style="ellipse;whiteSpace=wrap;html=1;" vertex="1" parent="1">
          <mxGeometry x="115" y="250" width="70" height="50" as="geometry" />
        </mxCell>
        <mxCell id="JaUzYhM19OWxOe5XVF9s-19" value="" style="endArrow=classic;html=1;rounded=0;exitX=0.5;exitY=1;exitDx=0;exitDy=0;entryX=0.5;entryY=0;entryDx=0;entryDy=0;" edge="1" parent="1" source="JaUzYhM19OWxOe5XVF9s-6" target="JaUzYhM19OWxOe5XVF9s-18">
          <mxGeometry width="50" height="50" relative="1" as="geometry">
            <mxPoint x="270" y="340" as="sourcePoint" />
            <mxPoint x="320" y="290" as="targetPoint" />
          </mxGeometry>
        </mxCell>
        <mxCell id="JaUzYhM19OWxOe5XVF9s-20" value="CRHF" style="ellipse;whiteSpace=wrap;html=1;" vertex="1" parent="1">
          <mxGeometry x="220" y="270" width="50" height="30" as="geometry" />
        </mxCell>
        <mxCell id="JaUzYhM19OWxOe5XVF9s-21" value="" style="endArrow=classic;html=1;rounded=0;exitX=0.5;exitY=1;exitDx=0;exitDy=0;entryX=0.5;entryY=0;entryDx=0;entryDy=0;" edge="1" parent="1" source="JaUzYhM19OWxOe5XVF9s-8" target="JaUzYhM19OWxOe5XVF9s-20">
          <mxGeometry width="50" height="50" relative="1" as="geometry">
            <mxPoint x="270" y="340" as="sourcePoint" />
            <mxPoint x="320" y="290" as="targetPoint" />
          </mxGeometry>
        </mxCell>
        <mxCell id="JaUzYhM19OWxOe5XVF9s-26" value="" style="endArrow=classic;html=1;rounded=0;entryX=0.5;entryY=0;entryDx=0;entryDy=0;" edge="1" parent="1" target="JaUzYhM19OWxOe5XVF9s-8">
          <mxGeometry width="50" height="50" relative="1" as="geometry">
            <mxPoint x="190" y="140" as="sourcePoint" />
            <mxPoint x="320" y="290" as="targetPoint" />
            <Array as="points">
              <mxPoint x="190" y="170" />
              <mxPoint x="245" y="170" />
            </Array>
          </mxGeometry>
        </mxCell>
        <mxCell id="JaUzYhM19OWxOe5XVF9s-27" value="" style="endArrow=classic;html=1;rounded=0;exitX=0.5;exitY=1;exitDx=0;exitDy=0;entryX=0.5;entryY=0;entryDx=0;entryDy=0;" edge="1" parent="1" source="JaUzYhM19OWxOe5XVF9s-5" target="JaUzYhM19OWxOe5XVF9s-15">
          <mxGeometry width="50" height="50" relative="1" as="geometry">
            <mxPoint x="270" y="340" as="sourcePoint" />
            <mxPoint x="320" y="290" as="targetPoint" />
          </mxGeometry>
        </mxCell>
      </root>
    </mxGraphModel>
  </diagram>
</mxfile>
